
Genre:Adventure | Drama | Fantasy
Language:English  http://www.imdb.com/title/tt1031241/
Source:BluRay.x264.KaKa


Format : Matroska
File size : 1.73 GiB
Duration : 1h 35mn
Overall bit rate : 2 585 Kbps


Video
Format settings, CABAC : Yes
Format settings, ReFrames : 4 frames
Format settings, GOP : M=1, N=32
Codec ID : V_MPEG4/ISO/AVC
Duration : 1h 35mn
Bit rate : 2 200 Kbps
Width : 1 280 pixels
Height : 720 pixels
Display aspect ratio : 16:9
Frame rate mode : Variable
Frame rate : 23.976 fps
Color space : YUV
Chroma subsampling : 4:2:0
Bit depth : 8 bits
Scan type : Progressive
Bits/(Pixel*Frame) : 0.100
Stream size : 1.44 GiB (83%)
Writing library : x264


Audio
ID : 2
Format : AC-3
Format/Info : Audio Coding 3
Mode extension : CM (complete main)
Codec ID : A_AC3
Duration : 1h 35mn
Bit rate mode : Constant
Bit rate : 384 Kbps
Channel(s) : 6 channels
Channel positions : Front: L C R, Side: L R, LFE
Sampling rate : 48.0 KHz
Bit depth : 16 bits
Video delay : -1mn 5s
Stream size : 263 MiB (15%)
Language : English


Plot:
A haunting ghost story spanning two worlds, two centuries apart. When 13 year old Tolly finds he can mysteriously travel between the two, he begins an adventure that unlocks family secrets laid buried for generations.
 
http://shareimage.org/images/p9hs5w4blv7rk16ezds.png 
http://shareimage.org/images/zbqe2hy2iyy9wvwl36x.png 
http://shareimage.org/images/gyz7m5xziw6edi5g2nc9.png